<svg width="49" height="42" viewBox="0 0 49 42" fill="none" xmlns="http://www.w3.org/2000/svg">
<path d="M14.5469 24.2308C14.5469 30.03 19.0028 34.7308 24.5 34.7308C29.9972 34.7308 34.4531 30.03 34.4531 24.2308C34.4531 18.4315 29.9972 13.7308 24.5 13.7308C19.0028 13.7308 14.5469 18.4315 14.5469 24.2308ZM45.9375 6.46154H35.2188C34.4531 3.23077 33.6875 0 30.625 0H18.375C15.3125 0 14.5469 3.23077 13.7812 6.46154H3.0625C1.37812 6.46154 0 7.91538 0 9.69231V38.7692C0 40.5462 1.37812 42 3.0625 42H45.9375C47.6219 42 49 40.5462 49 38.7692V9.69231C49 7.91538 47.6219 6.46154 45.9375 6.46154ZM24.5 38.5673C16.9938 38.5673 10.9102 32.1494 10.9102 24.2308C10.9102 16.3122 16.9938 9.89423 24.5 9.89423C32.0062 9.89423 38.0898 16.3122 38.0898 24.2308C38.0898 32.1494 32.0062 38.5673 24.5 38.5673ZM45.9375 16.1538H39.8125V12.9231H45.9375V16.1538Z" fill="black"/>
</svg>
