<svg width="50" height="50" viewBox="0 0 50 50" fill="none" xmlns="http://www.w3.org/2000/svg">
<path d="M17.6675 35.0966L19.6323 32.3466L17.4803 30.1946L14.7302 32.1594C14.2203 31.8748 13.674 31.6465 13.1002 31.4837L12.5447 28.1508H9.50086L8.94536 31.4837C8.3716 31.6465 7.82523 31.8733 7.31538 32.1594L4.56527 30.1946L2.41327 32.3466L4.37807 35.0966C4.09347 35.6064 3.86518 36.1528 3.70386 36.7265L0.37085 37.282V40.3258L3.70386 40.8813C3.86671 41.455 4.09347 42.0014 4.37959 42.5112L2.41479 45.2612L4.56679 47.4131L7.3169 45.4484C7.82675 45.733 8.37312 45.9613 8.94688 46.1241L9.50238 49.457H12.5462L13.1017 46.1241C13.6755 45.9613 14.2219 45.7345 14.7317 45.4484L17.4818 47.4131L19.6338 45.2612L17.669 42.5112C17.9536 42.0014 18.1819 41.455 18.3448 40.8813L21.6778 40.3258V37.282L18.3448 36.7265C18.1819 36.1528 17.9551 35.6064 17.669 35.0966H17.6675ZM11.0228 41.8476C9.34106 41.8476 7.97894 40.4856 7.97894 38.8039C7.97894 37.1222 9.34106 35.7601 11.0228 35.7601C12.7045 35.7601 14.0666 37.1222 14.0666 38.8039C14.0666 40.4856 12.7045 41.8476 11.0228 41.8476ZM49.0708 19.0195V15.9758L45.8657 15.3929C45.8063 15.0109 45.7318 14.6335 45.6404 14.2621L48.3784 12.4983L47.2141 9.68586L44.0302 10.3737C43.8293 10.045 43.6148 9.72543 43.388 9.41649L45.2432 6.73647L43.0912 4.58453L40.4111 6.4397C40.1022 6.21294 39.7826 5.99836 39.4538 5.79747L40.1417 2.61371L37.3292 1.44947L35.5653 4.18733C35.194 4.09753 34.8165 4.02144 34.4345 3.96209L33.8516 0.757019H30.8078L30.2249 3.96209C29.8429 4.02144 29.4654 4.09601 29.0941 4.18733L27.3302 1.44947L24.5177 2.61371L25.2056 5.79747C24.8768 5.99836 24.5572 6.21294 24.2483 6.4397L21.5682 4.58453L19.4162 6.73647L21.2714 9.41649C21.0446 9.72543 20.8301 10.045 20.6292 10.3737L17.4453 9.68586L16.281 12.4983L19.019 14.2621C18.9292 14.6335 18.8531 15.0109 18.7937 15.3929L15.5886 15.9758V19.0195L18.7937 19.6024C18.8531 19.9844 18.9276 20.3618 19.019 20.7332L16.281 22.497L17.4453 25.3094L20.6292 24.6215C20.8301 24.9503 21.0446 25.2699 21.2714 25.5788L19.4162 28.2588L21.5682 30.4108L24.2483 28.5556C24.5572 28.7823 24.8768 28.9969 25.2056 29.1978L24.5177 32.3816L27.3302 33.5458L29.0941 30.808C29.4654 30.8978 29.8429 30.9738 30.2249 31.0332L30.8078 34.2383H33.8516L34.4345 31.0332C34.8165 30.9738 35.194 30.8993 35.5653 30.808L37.3292 33.5458L40.1417 32.3816L39.4538 29.1978C39.7826 28.9969 40.1022 28.7823 40.4111 28.5556L43.0912 30.4108L45.2432 28.2588L43.388 25.5788C43.6148 25.2699 43.8293 24.9503 44.0302 24.6215L47.2141 25.3094L48.3784 22.497L45.6404 20.7332C45.7302 20.3618 45.8063 19.9844 45.8657 19.6024L49.0708 19.0195ZM32.3297 24.1178C28.674 24.1178 25.7093 21.1532 25.7093 17.4976C25.7093 13.8421 28.674 10.8775 32.3297 10.8775C35.9854 10.8775 38.9501 13.8421 38.9501 17.4976C38.9501 21.1532 35.9854 24.1178 32.3297 24.1178Z" fill="black"/>
</svg>
