<svg width="49" height="49" viewBox="0 0 49 49" fill="none" xmlns="http://www.w3.org/2000/svg">
<path d="M41.0906 33.4803C38.9433 33.4803 37.0044 34.3722 35.621 35.8028L15.1229 25.5539C15.1853 25.1612 15.2188 24.7594 15.2188 24.35C15.2188 23.9406 15.1853 23.5373 15.1229 23.1461L35.621 12.8972C37.0044 14.3278 38.9433 15.2197 41.0906 15.2197C45.2925 15.2197 48.7 11.812 48.7 7.60985C48.7 3.40769 45.2925 0 41.0906 0C36.8887 0 33.4813 3.40769 33.4813 7.60985C33.4813 8.01926 33.5147 8.42258 33.5771 8.81373L13.079 19.0627C11.6956 17.632 9.75674 16.7402 7.60938 16.7402C3.40748 16.7402 0 20.1478 0 24.35C0 28.5522 3.40748 31.9598 7.60938 31.9598C9.75674 31.9598 11.6956 31.068 13.079 29.6373L33.5771 39.8863C33.5147 40.2789 33.4813 40.6807 33.4813 41.0901C33.4813 45.2923 36.8887 48.7 41.0906 48.7C45.2925 48.7 48.7 45.2923 48.7 41.0901C48.7 36.888 45.2925 33.4803 41.0906 33.4803Z" fill="black"/>
</svg>
