<svg width="49" height="49" viewBox="0 0 49 49" fill="none" xmlns="http://www.w3.org/2000/svg">
<path d="M6.0875 42.6125H48.7V48.7H0V0H6.0875V42.6125ZM13.6969 39.5688C11.1751 39.5688 9.13125 37.5249 9.13125 35.0031C9.13125 32.4814 11.1751 30.4375 13.6969 30.4375C13.8308 30.4375 13.9647 30.4451 14.0956 30.4558L19.0037 22.2757C18.5364 21.5589 18.2625 20.7036 18.2625 19.7829C18.2625 17.2611 20.3064 15.2172 22.8281 15.2172C25.3499 15.2172 27.3938 17.2611 27.3938 19.7829C27.3938 20.7021 27.1213 21.5589 26.6526 22.2757L31.5606 30.4558C31.6915 30.4451 31.8255 30.4375 31.9594 30.4375C32.0613 30.4375 32.1618 30.4421 32.2607 30.4482L40.3632 16.2704C39.8625 15.5368 39.5688 14.6511 39.5688 13.6969C39.5688 11.1751 41.6126 9.13125 44.1344 9.13125C46.6561 9.13125 48.7 11.1751 48.7 13.6969C48.7 16.2186 46.6561 18.2625 44.1344 18.2625C44.0324 18.2625 43.932 18.2579 43.833 18.2518L35.7306 32.4296C36.2313 33.1617 36.525 34.0489 36.525 35.0031C36.525 37.5249 34.4811 39.5688 31.9594 39.5688C29.4376 39.5688 27.3938 37.5249 27.3938 35.0031C27.3938 34.0839 27.6662 33.2271 28.1349 32.5103L23.2269 24.3302C23.096 24.3409 22.962 24.3485 22.8281 24.3485C22.6942 24.3485 22.5603 24.3409 22.4294 24.3302L17.5213 32.5103C17.9886 33.2271 18.2625 34.0824 18.2625 35.0016C18.2625 37.5233 16.2186 39.5672 13.6969 39.5672V39.5688Z" fill="black"/>
</svg>
